P3
# mcg@leim@isel 2014/2015
63 63
255
0 45 108 0 45 109 0 46 110 0 46 111 0 46 112 0 47 113 0 47 114 0 48 115 0 48 116 0 48 117 0 49 118 0 49 119 0 50 120 0 50 121 0 51 122 0 51 123 0 51 124 0 52 125 0 52 126 0 53 128 0 53 129 0 54 130 0 54 131 0 55 132 0 55 134 0 56 135 0 56 136 0 57 137 0 57 138 0 58 140 0 58 141 0 59 142 0 59 143 0 60 145 0 60 146 0 61 147 0 62 148 0 62 150 0 63 151 0 63 152 0 64 153 0 64 154 0 64 155 0 65 157 0 65 158 0 66 159 0 66 160 0 67 161 0 67 162 0 67 163 0 68 163 0 68 164 0 68 165 0 69 166 0 69 166 0 69 167 0 70 168 0 70 168 0 70 168 0 70 169 0 70 169 0 70 169 0 70 169 
0 45 109 0 45 110 0 46 111 0 46 111 0 47 112 0 47 113 0 47 114 0 48 115 0 48 116 0 49 117 0 49 118 0 49 119 0 50 121 0 50 122 0 51 123 0 51 124 0 52 125 0 52 126 0 53 127 0 53 128 0 54 130 0 54 131 0 55 132 0 55 133 0 56 135 0 56 136 0 57 137 0 57 138 0 58 140 0 58 141 0 59 142 0 59 143 0 60 145 0 61 146 0 61 147 0 62 149 0 62 150 0 63 151 0 63 152 0 64 154 0 64 155 0 65 156 0 65 157 0 66 158 0 66 159 0 67 161 0 67 162 0 67 163 0 68 164 0 68 165 0 69 166 0 69 166 0 69 167 0 70 168 0 70 169 0 70 169 0 70 170 0 71 170 0 71 171 0 71 171 0 71 171 0 71 171 0 71 172 
0 45 109 0 46 110 0 46 111 0 46 112 0 47 113 0 47 114 0 48 115 0 48 116 0 48 117 0 49 118 0 49 119 0 50 120 0 50 121 0 51 122 0 51 123 0 52 125 0 52 126 0 53 127 0 53 128 0 54 129 0 54 130 0 55 132 0 55 133 0 56 134 0 56 135 0 57 137 0 57 138 0 58 139 0 58 141 0 59 142 0 59 143 0 60 145 0 61 146 0 61 147 0 62 149 0 62 150 0 63 151 0 63 153 0 64 154 0 64 155 0 65 156 0 65 158 0 66 159 0 66 160 0 67 161 0 67 162 0 68 164 0 68 165 0 69 166 0 69 167 0 70 168 0 70 168 0 70 169 0 71 170 0 71 171 0 71 171 0 71 172 0 72 172 0 72 173 0 72 173 0 72 174 0 72 174 0 72 174 
0 45 110 0 46 111 0 46 111 0 47 112 0 47 113 0 47 114 0 48 115 0 48 116 0 49 117 0 49 119 0 50 120 0 50 121 0 50 122 0 51 123 0 51 124 0 52 125 0 52 126 0 53 128 0 53 129 0 54 130 0 54 131 0 55 133 0 55 134 0 56 135 0 57 136 0 57 138 0 58 139 0 58 140 0 59 142 0 59 143 0 60 144 0 60 146 0 61 147 0 62 149 0 62 150 0 63 151 0 63 153 0 64 154 0 64 155 0 65 157 0 66 158 0 66 159 0 67 161 0 67 162 0 68 163 0 68 164 0 69 165 0 69 167 0 70 168 0 70 169 0 70 170 0 71 171 0 71 171 0 71 172 0 72 173 0 72 174 0 72 174 0 73 175 0 73 175 0 73 176 0 73 176 0 73 176 0 73 176 
0 46 110 0 46 111 0 46 112 0 47 113 0 47 114 0 48 115 0 48 116 0 48 117 0 49 118 0 49 119 0 50 120 0 50 121 0 51 122 0 51 124 0 52 125 0 52 126 0 53 127 0 53 128 0 54 130 0 54 131 0 55 132 0 55 133 0 56 135 0 56 136 0 57 137 0 58 139 0 58 140 0 59 141 0 59 143 0 60 144 0 60 146 0 61 147 0 62 148 0 62 150 0 63 151 0 63 153 0 64 154 0 65 156 0 65 157 0 66 158 0 66 160 0 67 161 0 67 162 0 68 164 0 68 165 0 69 166 0 69 167 0 70 169 0 70 170 0 71 171 0 71 172 0 72 173 0 72 174 0 72 174 0 73 175 0 73 176 0 73 177 0 74 177 0 74 178 0 74 178 0 74 178 0 74 179 0 74 179 
0 46 110 0 46 111 0 47 112 0 47 113 0 47 114 0 48 115 0 48 116 0 49 117 0 49 119 0 50 120 0 50 121 0 50 122 0 51 123 0 51 124 0 52 125 0 52 127 0 53 128 0 53 129 0 54 130 0 55 132 0 55 133 0 56 134 0 56 136 0 57 137 0 57 138 0 58 140 0 58 141 0 59 143 0 60 144 0 60 145 0 61 147 0 61 148 0 62 150 0 63 151 0 63 153 0 64 154 0 65 156 0 65 157 0 66 158 0 66 160 0 67 161 0 67 163 0 68 164 0 69 165 0 69 167 0 70 168 0 70 169 0 71 171 0 71 172 0 72 173 0 72 174 0 73 175 0 73 176 0 73 177 0 74 178 0 74 178 0 74 179 0 74 179 0 75 180 0 75 180 0 75 181 0 75 181 0 75 181 
0 46 111 0 46 112 0 47 113 0 47 114 0 48 115 0 48 116 0 48 117 0 49 118 0 49 119 0 50 120 0 50 121 0 51 122 0 51 124 0 52 125 0 52 126 0 53 127 0 53 129 0 54 130 0 54 131 0 55 132 0 55 134 0 56 135 0 57 136 0 57 138 0 58 139 0 58 141 0 59 142 0 60 144 0 60 145 0 61 146 0 61 148 0 62 149 0 63 151 0 63 152 0 64 154 0 64 155 0 65 157 0 66 158 0 66 160 0 67 161 0 68 163 0 68 164 0 69 166 0 69 167 0 70 169 0 71 170 0 71 171 0 72 172 0 72 174 0 73 175 0 73 176 0 73 177 0 74 178 0 74 179 0 75 180 0 75 181 0 75 181 0 75 182 0 76 182 0 76 183 0 76 183 0 76 183 0 76 184 
0 46 111 0 46 112 0 47 113 0 47 114 0 48 115 0 48 116 0 49 117 0 49 118 0 50 120 0 50 121 0 50 122 0 51 123 0 51 124 0 52 125 0 52 127 0 53 128 0 54 129 0 54 131 0 55 132 0 55 133 0 56 135 0 56 136 0 57 137 0 58 139 0 58 140 0 59 142 0 59 143 0 60 145 0 61 146 0 61 148 0 62 149 0 62 151 0 63 152 0 64 154 0 64 155 0 65 157 0 66 158 0 66 160 0 67 161 0 68 163 0 68 165 0 69 166 0 70 168 0 70 169 0 71 170 0 71 172 0 72 173 0 72 174 0 73 176 0 73 177 0 74 178 0 74 179 0 75 180 0 75 181 0 76 182 0 76 183 0 76 184 0 76 184 0 77 185 0 77 185 0 77 186 0 77 186 0 77 186 
0 46 112 0 47 113 0 47 114 0 47 115 0 48 116 0 48 117 0 49 118 0 49 119 0 50 120 0 50 121 0 51 122 0 51 124 0 52 125 0 52 126 0 53 127 0 53 129 0 54 130 0 54 131 0 55 133 0 56 134 0 56 135 0 57 137 0 57 138 0 58 140 0 58 141 0 59 143 0 60 144 0 60 146 0 61 147 0 62 149 0 62 150 0 63 152 0 64 153 0 64 155 0 65 157 0 66 158 0 66 160 0 67 161 0 68 163 0 68 165 0 69 166 0 70 168 0 70 169 0 71 171 0 71 172 0 72 174 0 73 175 0 73 176 0 74 178 0 74 179 0 75 180 0 75 181 0 76 182 0 76 183 0 77 184 0 77 185 0 77 186 0 77 187 0 78 187 0 78 188 0 78 188 0 78 188 0 78 188 
0 46 112 0 47 113 0 47 114 0 48 115 0 48 116 0 49 117 0 49 118 0 49 119 0 50 121 0 50 122 0 51 123 0 51 124 0 52 125 0 52 127 0 53 128 0 54 129 0 54 131 0 55 132 0 55 133 0 56 135 0 56 136 0 57 138 0 58 139 0 58 140 0 59 142 0 59 143 0 60 145 0 61 147 0 61 148 0 62 150 0 63 151 0 63 153 0 64 155 0 65 156 0 65 158 0 66 160 0 67 161 0 68 163 0 68 164 0 69 166 0 70 168 0 70 169 0 71 171 0 72 172 0 72 174 0 73 176 0 73 177 0 74 178 0 75 180 0 75 181 0 76 182 0 76 184 0 77 185 0 77 186 0 77 187 0 78 188 0 78 188 0 78 189 0 79 190 0 79 190 0 79 191 0 79 191 0 79 191 
0 46 112 0 47 113 0 47 114 0 48 115 0 48 116 0 49 118 0 49 119 0 50 120 0 50 121 0 51 122 0 51 123 0 52 125 0 52 126 0 53 127 0 53 128 0 54 130 0 54 131 0 55 133 0 56 134 0 56 135 0 57 137 0 57 138 0 58 140 0 59 141 0 59 143 0 60 144 0 61 146 0 61 148 0 62 149 0 63 151 0 63 152 0 64 154 0 65 156 0 65 157 0 66 159 0 67 161 0 67 163 0 68 164 0 69 166 0 70 168 0 70 169 0 71 171 0 72 173 0 72 174 0 73 176 0 74 177 0 74 179 0 75 180 0 75 182 0 76 183 0 77 184 0 77 186 0 78 187 0 78 188 0 78 189 0 79 190 0 79 191 0 79 191 0 80 192 0 80 193 0 80 193 0 80 193 0 80 193 
0 47 113 0 47 114 0 47 115 0 48 116 0 48 117 0 49 118 0 49 119 0 50 120 0 50 121 0 51 123 0 51 124 0 52 125 0 52 126 0 53 128 0 53 129 0 54 130 0 55 132 0 55 133 0 56 135 0 56 136 0 57 138 0 58 139 0 58 141 0 59 142 0 60 144 0 60 145 0 61 147 0 62 148 0 62 150 0 63 152 0 64 153 0 64 155 0 65 157 0 66 159 0 67 160 0 67 162 0 68 164 0 69 166 0 69 167 0 70 169 0 71 171 0 72 173 0 72 174 0 73 176 0 74 178 0 74 179 0 75 181 0 76 182 0 76 184 0 77 185 0 77 187 0 78 188 0 78 189 0 79 190 0 79 191 0 80 192 0 80 193 0 80 194 0 81 194 0 81 195 0 81 195 0 81 196 0 81 196 
0 47 113 0 47 114 0 48 115 0 48 116 0 49 117 0 49 118 0 50 120 0 50 121 0 51 122 0 51 123 0 52 124 0 52 126 0 53 127 0 53 128 0 54 130 0 54 131 0 55 132 0 55 134 0 56 135 0 57 137 0 57 138 0 58 140 0 59 141 0 59 143 0 60 144 0 61 146 0 61 148 0 62 149 0 63 151 0 63 153 0 64 155 0 65 156 0 66 158 0 66 160 0 67 162 0 68 163 0 69 165 0 69 167 0 70 169 0 71 171 0 72 172 0 72 174 0 73 176 0 74 178 0 74 179 0 75 181 0 76 183 0 76 184 0 77 186 0 78 187 0 78 189 0 79 190 0 79 191 0 80 192 0 80 194 0 81 195 0 81 195 0 81 196 0 82 197 0 82 197 0 82 198 0 82 198 0 82 198 
0 47 113 0 47 114 0 48 115 0 48 116 0 49 118 0 49 119 0 50 120 0 50 121 0 51 122 0 51 124 0 52 125 0 52 126 0 53 127 0 53 129 0 54 130 0 55 132 0 55 133 0 56 134 0 56 136 0 57 137 0 58 139 0 58 140 0 59 142 0 60 144 0 60 145 0 61 147 0 62 149 0 62 150 0 63 152 0 64 154 0 65 156 0 65 157 0 66 159 0 67 161 0 68 163 0 68 165 0 69 166 0 70 168 0 71 170 0 71 172 0 72 174 0 73 176 0 74 178 0 74 179 0 75 181 0 76 183 0 77 184 0 77 186 0 78 188 0 79 189 0 79 191 0 80 192 0 80 193 0 81 195 0 81 196 0 82 197 0 82 198 0 82 199 0 83 199 0 83 200 0 83 200 0 83 201 0 83 201 
0 47 114 0 47 115 0 48 116 0 48 117 0 49 118 0 49 119 0 50 120 0 50 121 0 51 123 0 51 124 0 52 125 0 52 127 0 53 128 0 54 129 0 54 131 0 55 132 0 55 134 0 56 135 0 57 136 0 57 138 0 58 140 0 59 141 0 59 143 0 60 144 0 61 146 0 61 148 0 62 149 0 63 151 0 63 153 0 64 155 0 65 157 0 66 158 0 66 160 0 67 162 0 68 164 0 69 166 0 70 168 0 70 170 0 71 172 0 72 173 0 73 175 0 74 177 0 74 179 0 75 181 0 76 183 0 77 185 0 77 186 0 78 188 0 79 190 0 79 191 0 80 193 0 81 194 0 81 196 0 82 197 0 82 198 0 83 199 0 83 200 0 83 201 0 84 202 0 84 202 0 84 203 0 84 203 0 84 203 
0 47 114 0 48 115 0 48 116 0 49 117 0 49 118 0 49 119 0 50 121 0 50 122 0 51 123 0 52 124 0 52 126 0 53 127 0 53 128 0 54 130 0 54 131 0 55 133 0 56 134 0 56 136 0 57 137 0 57 139 0 58 140 0 59 142 0 59 143 0 60 145 0 61 147 0 62 148 0 62 150 0 63 152 0 64 154 0 65 156 0 65 157 0 66 159 0 67 161 0 68 163 0 68 165 0 69 167 0 70 169 0 71 171 0 72 173 0 73 175 0 73 177 0 74 179 0 75 181 0 76 183 0 77 184 0 77 186 0 78 188 0 79 190 0 80 192 0 80 193 0 81 195 0 81 196 0 82 198 0 83 199 0 83 200 0 84 201 0 84 202 0 84 203 0 85 204 0 85 205 0 85 205 0 85 205 0 85 206 
0 47 114 0 48 115 0 48 116 0 49 117 0 49 119 0 50 120 0 50 121 0 51 122 0 51 123 0 52 125 0 52 126 0 53 127 0 53 129 0 54 130 0 55 132 0 55 133 0 56 135 0 56 136 0 57 138 0 58 139 0 58 141 0 59 142 0 60 144 0 60 146 0 61 147 0 62 149 0 63 151 0 63 153 0 64 155 0 65 156 0 66 158 0 66 160 0 67 162 0 68 164 0 69 166 0 70 168 0 71 170 0 71 172 0 72 174 0 73 176 0 74 178 0 75 180 0 76 182 0 76 184 0 77 186 0 78 188 0 79 190 0 80 192 0 80 193 0 81 195 0 82 197 0 82 198 0 83 200 0 83 201 0 84 202 0 84 203 0 85 205 0 85 205 0 86 206 0 86 207 0 86 207 0 86 208 0 86 208 
0 47 114 0 48 115 0 48 117 0 49 118 0 49 119 0 50 120 0 50 121 0 51 123 0 51 124 0 52 125 0 52 126 0 53 128 0 54 129 0 54 131 0 55 132 0 55 134 0 56 135 0 57 137 0 57 138 0 58 140 0 59 141 0 59 143 0 60 145 0 61 146 0 61 148 0 62 150 0 63 152 0 64 154 0 64 155 0 65 157 0 66 159 0 67 161 0 68 163 0 69 165 0 69 167 0 70 169 0 71 171 0 72 173 0 73 175 0 74 177 0 74 179 0 75 181 0 76 184 0 77 186 0 78 188 0 79 189 0 79 191 0 80 193 0 81 195 0 82 197 0 82 199 0 83 200 0 84 202 0 84 203 0 85 204 0 85 206 0 86 207 0 86 208 0 87 208 0 87 209 0 87 210 0 87 210 0 87 210 
0 47 115 0 48 116 0 48 117 0 49 118 0 49 119 0 50 120 0 50 122 0 51 123 0 51 124 0 52 125 0 53 127 0 53 128 0 54 130 0 54 131 0 55 132 0 56 134 0 56 135 0 57 137 0 57 139 0 58 140 0 59 142 0 60 144 0 60 145 0 61 147 0 62 149 0 62 151 0 63 152 0 64 154 0 65 156 0 66 158 0 66 160 0 67 162 0 68 164 0 69 166 0 70 168 0 71 170 0 71 172 0 72 174 0 73 176 0 74 179 0 75 181 0 76 183 0 77 185 0 78 187 0 78 189 0 79 191 0 80 193 0 81 195 0 82 197 0 82 199 0 83 200 0 84 202 0 85 204 0 85 205 0 86 206 0 86 208 0 87 209 0 87 210 0 87 211 0 88 211 0 88 212 0 88 212 0 88 212 
0 48 115 0 48 116 0 48 117 0 49 118 0 49 119 0 50 121 0 51 122 0 51 123 0 52 124 0 52 126 0 53 127 0 53 129 0 54 130 0 54 131 0 55 133 0 56 134 0 56 136 0 57 137 0 58 139 0 58 141 0 59 142 0 60 144 0 60 146 0 61 148 0 62 149 0 63 151 0 63 153 0 64 155 0 65 157 0 66 159 0 67 161 0 68 163 0 68 165 0 69 167 0 70 169 0 71 171 0 72 173 0 73 175 0 74 178 0 75 180 0 75 182 0 76 184 0 77 186 0 78 188 0 79 190 0 80 192 0 81 194 0 82 196 0 82 198 0 83 200 0 84 202 0 85 204 0 85 205 0 86 207 0 86 208 0 87 210 0 87 211 0 88 212 0 88 213 0 89 213 0 89 214 0 89 214 0 89 215 
0 48 115 0 48 116 0 49 117 0 49 118 0 50 120 0 50 121 0 51 122 0 51 123 0 52 125 0 52 126 0 53 127 0 53 129 0 54 130 0 55 132 0 55 133 0 56 135 0 56 136 0 57 138 0 58 140 0 59 141 0 59 143 0 60 145 0 61 146 0 61 148 0 62 150 0 63 152 0 64 154 0 65 156 0 65 158 0 66 160 0 67 162 0 68 164 0 69 166 0 70 168 0 71 170 0 71 172 0 72 174 0 73 176 0 74 179 0 75 181 0 76 183 0 77 185 0 78 187 0 79 190 0 80 192 0 80 194 0 81 196 0 82 198 0 83 200 0 84 202 0 85 204 0 85 205 0 86 207 0 87 209 0 87 210 0 88 211 0 88 213 0 89 214 0 89 215 0 89 215 0 90 216 0 90 216 0 90 217 
0 48 115 0 48 116 0 49 118 0 49 119 0 50 120 0 50 121 0 51 122 0 51 124 0 52 125 0 52 126 0 53 128 0 54 129 0 54 131 0 55 132 0 55 134 0 56 135 0 57 137 0 57 138 0 58 140 0 59 142 0 59 143 0 60 145 0 61 147 0 62 149 0 62 150 0 63 152 0 64 154 0 65 156 0 66 158 0 66 160 0 67 162 0 68 164 0 69 166 0 70 169 0 71 171 0 72 173 0 73 175 0 74 177 0 75 180 0 75 182 0 76 184 0 77 186 0 78 189 0 79 191 0 80 193 0 81 195 0 82 197 0 83 199 0 84 201 0 84 203 0 85 205 0 86 207 0 87 209 0 87 210 0 88 212 0 89 213 0 89 214 0 89 215 0 90 216 0 90 217 0 90 218 0 91 218 0 91 218 
0 48 115 0 48 117 0 49 118 0 49 119 0 50 120 0 50 121 0 51 123 0 51 124 0 52 125 0 52 127 0 53 128 0 54 129 0 54 131 0 55 132 0 55 134 0 56 135 0 57 137 0 57 139 0 58 140 0 59 142 0 60 144 0 60 145 0 61 147 0 62 149 0 63 151 0 63 153 0 64 155 0 65 157 0 66 159 0 67 161 0 68 163 0 68 165 0 69 167 0 70 169 0 71 172 0 72 174 0 73 176 0 74 178 0 75 181 0 76 183 0 77 185 0 78 187 0 79 190 0 80 192 0 81 194 0 82 196 0 82 199 0 83 201 0 84 203 0 85 205 0 86 207 0 87 208 0 87 210 0 88 212 0 89 213 0 89 215 0 90 216 0 90 217 0 91 218 0 91 219 0 91 220 0 91 220 0 91 220 
0 48 116 0 48 117 0 49 118 0 49 119 0 50 120 0 50 122 0 51 123 0 51 124 0 52 125 0 53 127 0 53 128 0 54 130 0 54 131 0 55 133 0 56 134 0 56 136 0 57 137 0 58 139 0 58 141 0 59 142 0 60 144 0 60 146 0 61 148 0 62 149 0 63 151 0 64 153 0 64 155 0 65 157 0 66 159 0 67 161 0 68 164 0 69 166 0 70 168 0 71 170 0 72 172 0 72 175 0 73 177 0 74 179 0 75 181 0 76 184 0 77 186 0 78 188 0 79 191 0 80 193 0 81 195 0 82 197 0 83 200 0 84 202 0 85 204 0 86 206 0 86 208 0 87 210 0 88 212 0 89 213 0 89 215 0 90 216 0 90 218 0 91 219 0 91 220 0 92 220 0 92 221 0 92 222 0 92 222 
0 48 116 0 48 117 0 49 118 0 49 119 0 50 120 0 50 122 0 51 123 0 52 124 0 52 126 0 53 127 0 53 128 0 54 130 0 54 131 0 55 133 0 56 134 0 56 136 0 57 138 0 58 139 0 58 141 0 59 143 0 60 144 0 61 146 0 61 148 0 62 150 0 63 152 0 64 154 0 65 156 0 66 158 0 67 160 0 68 162 0 69 165 0 70 167 0 71 169 0 71 171 0 72 173 0 73 176 0 74 178 0 75 180 0 76 182 0 77 184 0 78 187 0 79 189 0 80 192 0 80 194 0 81 196 0 82 198 0 83 201 0 84 203 0 85 205 0 86 207 0 87 209 0 88 211 0 88 213 0 89 215 0 90 216 0 90 218 0 91 219 0 91 220 0 92 221 0 92 222 0 92 223 0 93 223 0 93 223 
0 48 116 0 48 117 0 49 118 0 49 119 0 50 121 0 50 122 0 51 123 0 52 125 0 52 126 0 53 127 0 53 129 0 54 130 0 55 132 0 55 133 0 56 135 0 56 136 0 57 138 0 58 139 0 59 141 0 59 143 0 60 145 0 61 146 0 62 148 0 62 150 0 63 152 0 64 154 0 65 157 1 67 159 1 68 162 2 70 165 2 71 167 3 72 170 3 73 172 2 74 174 2 74 176 1 75 177 1 75 179 0 76 181 0 76 183 0 77 185 0 78 188 0 79 190 0 80 192 0 81 195 0 82 197 0 83 199 0 84 202 0 85 204 0 86 206 0 86 208 0 87 210 0 88 212 0 89 214 0 90 216 0 90 217 0 91 219 0 91 220 0 92 221 0 92 222 0 93 223 0 93 224 0 93 224 0 93 225 
0 48 116 0 49 117 0 49 118 0 50 120 0 50 121 0 51 122 0 51 123 0 52 125 0 52 126 0 53 127 0 53 129 0 54 130 0 55 132 0 55 133 0 56 135 0 57 136 0 57 138 0 58 140 0 59 141 0 59 143 0 60 145 0 61 147 0 62 149 0 63 151 0 64 153 1 65 156 2 67 159 3 69 162 5 72 166 7 75 171 9 78 175 10 80 178 10 81 180 9 81 181 7 80 182 5 79 182 3 78 182 2 77 183 1 77 184 0 78 186 0 78 188 0 79 191 0 80 193 0 81 195 0 82 198 0 83 200 0 84 202 0 85 205 0 86 207 0 87 209 0 88 211 0 89 213 0 89 215 0 90 217 0 91 218 0 91 220 0 92 221 0 92 223 0 93 224 0 93 224 0 93 225 0 94 226 0 94 226 
0 48 116 0 49 117 0 49 118 0 50 120 0 50 121 0 51 122 0 51 123 0 52 125 0 52 126 0 53 128 0 53 129 0 54 130 0 55 132 0 55 133 0 56 135 0 57 137 0 57 138 0 58 140 0 59 142 0 59 143 0 60 145 0 61 147 0 62 149 0 63 151 1 65 154 3 67 158 6 71 163 10 76 169 15 83 177 21 89 185 26 95 192 29 99 197 29 100 199 26 98 198 21 94 196 15 89 192 10 85 189 6 81 188 3 80 187 1 79 188 0 79 189 0 80 191 0 80 194 0 81 196 0 82 198 0 83 201 0 84 203 0 85 205 0 86 208 0 87 210 0 88 212 0 89 214 0 90 216 0 90 218 0 91 219 0 92 221 0 92 222 0 93 223 0 93 225 0 94 225 0 94 226 0 94 227 0 94 227 
0 48 116 0 49 117 0 49 118 0 50 120 0 50 121 0 51 122 0 51 124 0 52 125 0 52 126 0 53 128 0 53 129 0 54 131 0 55 132 0 55 134 0 56 135 0 57 137 0 57 138 0 58 140 0 59 142 0 60 144 0 60 145 0 61 147 0 62 150 1 64 152 3 67 156 7 72 162 13 79 171 23 89 182 35 102 197 48 116 212 59 128 225 65 136 234 65 136 236 59 131 232 48 121 223 35 109 213 23 98 203 13 89 196 7 84 192 3 81 190 1 80 191 0 80 192 0 81 194 0 82 197 0 83 199 0 84 201 0 85 204 0 86 206 0 86 208 0 87 210 0 88 213 0 89 215 0 90 217 0 91 218 0 91 220 0 92 222 0 93 223 0 93 224 0 94 225 0 94 226 0 94 227 0 94 227 0 95 228 
0 48 116 0 49 117 0 49 119 0 50 120 0 50 121 0 51 122 0 51 124 0 52 125 0 52 126 0 53 128 0 54 129 0 54 131 0 55 132 0 55 134 0 56 135 0 57 137 0 57 138 0 58 140 0 59 142 0 60 144 0 60 146 0 61 148 1 63 150 2 65 154 6 70 160 13 78 169 25 91 183 43 109 202 65 132 227 88 157 252 109 178 255 120 190 255 120 191 255 109 181 255 88 162 255 65 139 243 43 118 223 25 101 208 13 90 198 6 84 193 2 81 192 1 81 193 0 81 195 0 82 197 0 83 199 0 84 202 0 85 204 0 86 206 0 87 209 0 88 211 0 88 213 0 89 215 0 90 217 0 91 219 0 92 221 0 92 222 0 93 224 0 93 225 0 94 226 0 94 227 0 94 227 0 95 228 0 95 228 
0 48 116 0 49 117 0 49 119 0 50 120 0 50 121 0 51 122 0 51 124 0 52 125 0 52 126 0 53 128 0 54 129 0 54 131 0 55 132 0 55 134 0 56 135 0 57 137 0 57 139 0 58 140 0 59 142 0 60 144 0 60 146 0 62 148 1 63 151 4 67 155 9 73 163 20 85 176 38 104 196 65 131 224 98 165 255 133 201 255 163 232 255 180 250 255 180 251 255 163 235 255 133 206 255 98 172 255 65 140 245 38 114 221 20 97 205 9 88 197 4 83 194 1 81 194 0 81 195 0 82 197 0 83 200 0 84 202 0 85 204 0 86 207 0 87 209 0 88 211 0 89 213 0 89 215 0 90 217 0 91 219 0 92 221 0 92 223 0 93 224 0 94 225 0 94 226 0 94 227 0 95 228 0 95 228 0 95 229 
0 48 116 0 49 117 0 49 119 0 50 120 0 50 121 0 51 122 0 51 124 0 52 125 0 52 126 0 53 128 0 54 129 0 54 131 0 55 132 0 55 134 0 56 135 0 57 137 0 57 139 0 58 140 0 59 142 0 60 144 0 61 146 0 62 148 1 64 151 5 68 156 12 76 165 25 90 181 47 113 205 79 146 239 120 187 255 163 231 255 199 255 255 220 255 255 220 255 255 199 255 255 163 236 255 120 194 255 79 154 255 47 123 230 25 102 210 12 90 199 5 84 195 1 82 194 0 81 195 0 82 197 0 83 200 0 84 202 0 85 205 0 86 207 0 87 209 0 88 211 0 89 214 0 90 216 0 90 218 0 91 219 0 92 221 0 92 223 0 93 224 0 94 225 0 94 226 0 94 227 0 95 228 0 95 229 0 95 229 
0 48 116 0 49 117 0 49 119 0 50 120 0 50 121 0 51 122 0 51 124 0 52 125 0 52 126 0 53 128 0 54 129 0 54 131 0 55 132 0 55 134 0 56 135 0 57 137 0 57 139 0 58 140 0 59 142 0 60 144 0 61 146 0 62 148 1 64 151 5 68 156 12 76 165 25 90 181 47 113 205 79 146 239 120 187 255 163 231 255 199 255 255 220 255 255 220 255 255 199 255 255 163 236 255 120 194 255 79 154 255 47 123 230 25 102 210 12 90 199 5 84 195 1 82 194 0 81 195 0 82 197 0 83 200 0 84 202 0 85 205 0 86 207 0 87 209 0 88 211 0 89 214 0 90 216 0 90 218 0 91 219 0 92 221 0 92 223 0 93 224 0 94 225 0 94 226 0 94 227 0 95 228 0 95 229 0 95 229 
0 48 116 0 49 117 0 49 119 0 50 120 0 50 121 0 51 122 0 51 124 0 52 125 0 52 126 0 53 128 0 54 129 0 54 131 0 55 132 0 55 134 0 56 135 0 57 137 0 57 139 0 58 140 0 59 142 0 60 144 0 60 146 0 62 148 1 63 151 4 67 155 9 73 163 20 85 176 38 104 196 65 131 224 98 165 255 133 201 255 163 232 255 180 250 255 180 251 255 163 235 255 133 206 255 98 172 255 65 140 245 38 114 221 20 97 205 9 88 197 4 83 194 1 81 194 0 81 195 0 82 197 0 83 200 0 84 202 0 85 204 0 86 207 0 87 209 0 88 211 0 89 213 0 89 215 0 90 217 0 91 219 0 92 221 0 92 223 0 93 224 0 94 225 0 94 226 0 94 227 0 95 228 0 95 228 0 95 229 
0 48 116 0 49 117 0 49 119 0 50 120 0 50 121 0 51 122 0 51 124 0 52 125 0 52 126 0 53 128 0 54 129 0 54 131 0 55 132 0 55 134 0 56 135 0 57 137 0 57 138 0 58 140 0 59 142 0 60 144 0 60 146 0 61 148 1 63 150 2 65 154 6 70 160 13 78 169 25 91 183 43 109 202 65 132 227 88 157 252 109 178 255 120 190 255 120 191 255 109 181 255 88 162 255 65 139 243 43 118 223 25 101 208 13 90 198 6 84 193 2 81 192 1 81 193 0 81 195 0 82 197 0 83 199 0 84 202 0 85 204 0 86 206 0 87 209 0 88 211 0 88 213 0 89 215 0 90 217 0 91 219 0 92 221 0 92 222 0 93 224 0 93 225 0 94 226 0 94 227 0 94 227 0 95 228 0 95 228 
0 48 116 0 49 117 0 49 118 0 50 120 0 50 121 0 51 122 0 51 124 0 52 125 0 52 126 0 53 128 0 53 129 0 54 131 0 55 132 0 55 134 0 56 135 0 57 137 0 57 138 0 58 140 0 59 142 0 60 144 0 60 145 0 61 147 0 62 150 1 64 152 3 67 156 7 72 162 13 79 171 23 89 182 35 102 197 48 116 212 59 128 225 65 136 234 65 136 236 59 131 232 48 121 223 35 109 213 23 98 203 13 89 196 7 84 192 3 81 190 1 80 191 0 80 192 0 81 194 0 82 197 0 83 199 0 84 201 0 85 204 0 86 206 0 86 208 0 87 210 0 88 213 0 89 215 0 90 217 0 91 218 0 91 220 0 92 222 0 93 223 0 93 224 0 94 225 0 94 226 0 94 227 0 94 227 0 95 228 
0 48 116 0 49 117 0 49 118 0 50 120 0 50 121 0 51 122 0 51 123 0 52 125 0 52 126 0 53 128 0 53 129 0 54 130 0 55 132 0 55 133 0 56 135 0 57 137 0 57 138 0 58 140 0 59 142 0 59 143 0 60 145 0 61 147 0 62 149 0 63 151 1 65 154 3 67 158 6 71 163 10 76 169 15 83 177 21 89 185 26 95 192 29 99 197 29 100 199 26 98 198 21 94 196 15 89 192 10 85 189 6 81 188 3 80 187 1 79 188 0 79 189 0 80 191 0 80 194 0 81 196 0 82 198 0 83 201 0 84 203 0 85 205 0 86 208 0 87 210 0 88 212 0 89 214 0 90 216 0 90 218 0 91 219 0 92 221 0 92 222 0 93 223 0 93 225 0 94 225 0 94 226 0 94 227 0 94 227 
0 48 116 0 49 117 0 49 118 0 50 120 0 50 121 0 51 122 0 51 123 0 52 125 0 52 126 0 53 127 0 53 129 0 54 130 0 55 132 0 55 133 0 56 135 0 57 136 0 57 138 0 58 140 0 59 141 0 59 143 0 60 145 0 61 147 0 62 149 0 63 151 0 64 153 1 65 156 2 67 159 3 69 162 5 72 166 7 75 171 9 78 175 10 80 178 10 81 180 9 81 181 7 80 182 5 79 182 3 78 182 2 77 183 1 77 184 0 78 186 0 78 188 0 79 191 0 80 193 0 81 195 0 82 198 0 83 200 0 84 202 0 85 205 0 86 207 0 87 209 0 88 211 0 89 213 0 89 215 0 90 217 0 91 218 0 91 220 0 92 221 0 92 223 0 93 224 0 93 224 0 93 225 0 94 226 0 94 226 
0 48 116 0 48 117 0 49 118 0 49 119 0 50 121 0 50 122 0 51 123 0 52 125 0 52 126 0 53 127 0 53 129 0 54 130 0 55 132 0 55 133 0 56 135 0 56 136 0 57 138 0 58 139 0 59 141 0 59 143 0 60 145 0 61 146 0 62 148 0 62 150 0 63 152 0 64 154 0 65 157 1 67 159 1 68 162 2 70 165 2 71 167 3 72 170 3 73 172 2 74 174 2 74 176 1 75 177 1 75 179 0 76 181 0 76 183 0 77 185 0 78 188 0 79 190 0 80 192 0 81 195 0 82 197 0 83 199 0 84 202 0 85 204 0 86 206 0 86 208 0 87 210 0 88 212 0 89 214 0 90 216 0 90 217 0 91 219 0 91 220 0 92 221 0 92 222 0 93 223 0 93 224 0 93 224 0 93 225 
0 48 116 0 48 117 0 49 118 0 49 119 0 50 120 0 50 122 0 51 123 0 52 124 0 52 126 0 53 127 0 53 128 0 54 130 0 54 131 0 55 133 0 56 134 0 56 136 0 57 138 0 58 139 0 58 141 0 59 143 0 60 144 0 61 146 0 61 148 0 62 150 0 63 152 0 64 154 0 65 156 0 66 158 0 67 160 0 68 162 0 69 165 0 70 167 0 71 169 0 71 171 0 72 173 0 73 176 0 74 178 0 75 180 0 76 182 0 77 184 0 78 187 0 79 189 0 80 192 0 80 194 0 81 196 0 82 198 0 83 201 0 84 203 0 85 205 0 86 207 0 87 209 0 88 211 0 88 213 0 89 215 0 90 216 0 90 218 0 91 219 0 91 220 0 92 221 0 92 222 0 92 223 0 93 223 0 93 223 
0 48 116 0 48 117 0 49 118 0 49 119 0 50 120 0 50 122 0 51 123 0 51 124 0 52 125 0 53 127 0 53 128 0 54 130 0 54 131 0 55 133 0 56 134 0 56 136 0 57 137 0 58 139 0 58 141 0 59 142 0 60 144 0 60 146 0 61 148 0 62 149 0 63 151 0 64 153 0 64 155 0 65 157 0 66 159 0 67 161 0 68 164 0 69 166 0 70 168 0 71 170 0 72 172 0 72 175 0 73 177 0 74 179 0 75 181 0 76 184 0 77 186 0 78 188 0 79 191 0 80 193 0 81 195 0 82 197 0 83 200 0 84 202 0 85 204 0 86 206 0 86 208 0 87 210 0 88 212 0 89 213 0 89 215 0 90 216 0 90 218 0 91 219 0 91 220 0 92 220 0 92 221 0 92 222 0 92 222 
0 48 115 0 48 117 0 49 118 0 49 119 0 50 120 0 50 121 0 51 123 0 51 124 0 52 125 0 52 127 0 53 128 0 54 129 0 54 131 0 55 132 0 55 134 0 56 135 0 57 137 0 57 139 0 58 140 0 59 142 0 60 144 0 60 145 0 61 147 0 62 149 0 63 151 0 63 153 0 64 155 0 65 157 0 66 159 0 67 161 0 68 163 0 68 165 0 69 167 0 70 169 0 71 172 0 72 174 0 73 176 0 74 178 0 75 181 0 76 183 0 77 185 0 78 187 0 79 190 0 80 192 0 81 194 0 82 196 0 82 199 0 83 201 0 84 203 0 85 205 0 86 207 0 87 208 0 87 210 0 88 212 0 89 213 0 89 215 0 90 216 0 90 217 0 91 218 0 91 219 0 91 220 0 91 220 0 91 220 
0 48 115 0 48 116 0 49 118 0 49 119 0 50 120 0 50 121 0 51 122 0 51 124 0 52 125 0 52 126 0 53 128 0 54 129 0 54 131 0 55 132 0 55 134 0 56 135 0 57 137 0 57 138 0 58 140 0 59 142 0 59 143 0 60 145 0 61 147 0 62 149 0 62 150 0 63 152 0 64 154 0 65 156 0 66 158 0 66 160 0 67 162 0 68 164 0 69 166 0 70 169 0 71 171 0 72 173 0 73 175 0 74 177 0 75 180 0 75 182 0 76 184 0 77 186 0 78 189 0 79 191 0 80 193 0 81 195 0 82 197 0 83 199 0 84 201 0 84 203 0 85 205 0 86 207 0 87 209 0 87 210 0 88 212 0 89 213 0 89 214 0 89 215 0 90 216 0 90 217 0 90 218 0 91 218 0 91 218 
0 48 115 0 48 116 0 49 117 0 49 118 0 50 120 0 50 121 0 51 122 0 51 123 0 52 125 0 52 126 0 53 127 0 53 129 0 54 130 0 55 132 0 55 133 0 56 135 0 56 136 0 57 138 0 58 140 0 59 141 0 59 143 0 60 145 0 61 146 0 61 148 0 62 150 0 63 152 0 64 154 0 65 156 0 65 158 0 66 160 0 67 162 0 68 164 0 69 166 0 70 168 0 71 170 0 71 172 0 72 174 0 73 176 0 74 179 0 75 181 0 76 183 0 77 185 0 78 187 0 79 190 0 80 192 0 80 194 0 81 196 0 82 198 0 83 200 0 84 202 0 85 204 0 85 205 0 86 207 0 87 209 0 87 210 0 88 211 0 88 213 0 89 214 0 89 215 0 89 215 0 90 216 0 90 216 0 90 217 
0 48 115 0 48 116 0 48 117 0 49 118 0 49 119 0 50 121 0 51 122 0 51 123 0 52 124 0 52 126 0 53 127 0 53 129 0 54 130 0 54 131 0 55 133 0 56 134 0 56 136 0 57 137 0 58 139 0 58 141 0 59 142 0 60 144 0 60 146 0 61 148 0 62 149 0 63 151 0 63 153 0 64 155 0 65 157 0 66 159 0 67 161 0 68 163 0 68 165 0 69 167 0 70 169 0 71 171 0 72 173 0 73 175 0 74 178 0 75 180 0 75 182 0 76 184 0 77 186 0 78 188 0 79 190 0 80 192 0 81 194 0 82 196 0 82 198 0 83 200 0 84 202 0 85 204 0 85 205 0 86 207 0 86 208 0 87 210 0 87 211 0 88 212 0 88 213 0 89 213 0 89 214 0 89 214 0 89 215 
0 47 115 0 48 116 0 48 117 0 49 118 0 49 119 0 50 120 0 50 122 0 51 123 0 51 124 0 52 125 0 53 127 0 53 128 0 54 130 0 54 131 0 55 132 0 56 134 0 56 135 0 57 137 0 57 139 0 58 140 0 59 142 0 60 144 0 60 145 0 61 147 0 62 149 0 62 151 0 63 152 0 64 154 0 65 156 0 66 158 0 66 160 0 67 162 0 68 164 0 69 166 0 70 168 0 71 170 0 71 172 0 72 174 0 73 176 0 74 179 0 75 181 0 76 183 0 77 185 0 78 187 0 78 189 0 79 191 0 80 193 0 81 195 0 82 197 0 82 199 0 83 200 0 84 202 0 85 204 0 85 205 0 86 206 0 86 208 0 87 209 0 87 210 0 87 211 0 88 211 0 88 212 0 88 212 0 88 212 
0 47 114 0 48 115 0 48 117 0 49 118 0 49 119 0 50 120 0 50 121 0 51 123 0 51 124 0 52 125 0 52 126 0 53 128 0 54 129 0 54 131 0 55 132 0 55 134 0 56 135 0 57 137 0 57 138 0 58 140 0 59 141 0 59 143 0 60 145 0 61 146 0 61 148 0 62 150 0 63 152 0 64 154 0 64 155 0 65 157 0 66 159 0 67 161 0 68 163 0 69 165 0 69 167 0 70 169 0 71 171 0 72 173 0 73 175 0 74 177 0 74 179 0 75 181 0 76 184 0 77 186 0 78 188 0 79 189 0 79 191 0 80 193 0 81 195 0 82 197 0 82 199 0 83 200 0 84 202 0 84 203 0 85 204 0 85 206 0 86 207 0 86 208 0 87 208 0 87 209 0 87 210 0 87 210 0 87 210 
0 47 114 0 48 115 0 48 116 0 49 117 0 49 119 0 50 120 0 50 121 0 51 122 0 51 123 0 52 125 0 52 126 0 53 127 0 53 129 0 54 130 0 55 132 0 55 133 0 56 135 0 56 136 0 57 138 0 58 139 0 58 141 0 59 142 0 60 144 0 60 146 0 61 147 0 62 149 0 63 151 0 63 153 0 64 155 0 65 156 0 66 158 0 66 160 0 67 162 0 68 164 0 69 166 0 70 168 0 71 170 0 71 172 0 72 174 0 73 176 0 74 178 0 75 180 0 76 182 0 76 184 0 77 186 0 78 188 0 79 190 0 80 192 0 80 193 0 81 195 0 82 197 0 82 198 0 83 200 0 83 201 0 84 202 0 84 203 0 85 205 0 85 205 0 86 206 0 86 207 0 86 207 0 86 208 0 86 208 
0 47 114 0 48 115 0 48 116 0 49 117 0 49 118 0 49 119 0 50 121 0 50 122 0 51 123 0 52 124 0 52 126 0 53 127 0 53 128 0 54 130 0 54 131 0 55 133 0 56 134 0 56 136 0 57 137 0 57 139 0 58 140 0 59 142 0 59 143 0 60 145 0 61 147 0 62 148 0 62 150 0 63 152 0 64 154 0 65 156 0 65 157 0 66 159 0 67 161 0 68 163 0 68 165 0 69 167 0 70 169 0 71 171 0 72 173 0 73 175 0 73 177 0 74 179 0 75 181 0 76 183 0 77 184 0 77 186 0 78 188 0 79 190 0 80 192 0 80 193 0 81 195 0 81 196 0 82 198 0 83 199 0 83 200 0 84 201 0 84 202 0 84 203 0 85 204 0 85 205 0 85 205 0 85 205 0 85 206 
0 47 114 0 47 115 0 48 116 0 48 117 0 49 118 0 49 119 0 50 120 0 50 121 0 51 123 0 51 124 0 52 125 0 52 127 0 53 128 0 54 129 0 54 131 0 55 132 0 55 134 0 56 135 0 57 136 0 57 138 0 58 140 0 59 141 0 59 143 0 60 144 0 61 146 0 61 148 0 62 149 0 63 151 0 63 153 0 64 155 0 65 157 0 66 158 0 66 160 0 67 162 0 68 164 0 69 166 0 70 168 0 70 170 0 71 172 0 72 173 0 73 175 0 74 177 0 74 179 0 75 181 0 76 183 0 77 185 0 77 186 0 78 188 0 79 190 0 79 191 0 80 193 0 81 194 0 81 196 0 82 197 0 82 198 0 83 199 0 83 200 0 83 201 0 84 202 0 84 202 0 84 203 0 84 203 0 84 203 
0 47 113 0 47 114 0 48 115 0 48 116 0 49 118 0 49 119 0 50 120 0 50 121 0 51 122 0 51 124 0 52 125 0 52 126 0 53 127 0 53 129 0 54 130 0 55 132 0 55 133 0 56 134 0 56 136 0 57 137 0 58 139 0 58 140 0 59 142 0 60 144 0 60 145 0 61 147 0 62 149 0 62 150 0 63 152 0 64 154 0 65 156 0 65 157 0 66 159 0 67 161 0 68 163 0 68 165 0 69 166 0 70 168 0 71 170 0 71 172 0 72 174 0 73 176 0 74 178 0 74 179 0 75 181 0 76 183 0 77 184 0 77 186 0 78 188 0 79 189 0 79 191 0 80 192 0 80 193 0 81 195 0 81 196 0 82 197 0 82 198 0 82 199 0 83 199 0 83 200 0 83 200 0 83 201 0 83 201 
0 47 113 0 47 114 0 48 115 0 48 116 0 49 117 0 49 118 0 50 120 0 50 121 0 51 122 0 51 123 0 52 124 0 52 126 0 53 127 0 53 128 0 54 130 0 54 131 0 55 132 0 55 134 0 56 135 0 57 137 0 57 138 0 58 140 0 59 141 0 59 143 0 60 144 0 61 146 0 61 148 0 62 149 0 63 151 0 63 153 0 64 155 0 65 156 0 66 158 0 66 160 0 67 162 0 68 163 0 69 165 0 69 167 0 70 169 0 71 171 0 72 172 0 72 174 0 73 176 0 74 178 0 74 179 0 75 181 0 76 183 0 76 184 0 77 186 0 78 187 0 78 189 0 79 190 0 79 191 0 80 192 0 80 194 0 81 195 0 81 195 0 81 196 0 82 197 0 82 197 0 82 198 0 82 198 0 82 198 
0 47 113 0 47 114 0 47 115 0 48 116 0 48 117 0 49 118 0 49 119 0 50 120 0 50 121 0 51 123 0 51 124 0 52 125 0 52 126 0 53 128 0 53 129 0 54 130 0 55 132 0 55 133 0 56 135 0 56 136 0 57 138 0 58 139 0 58 141 0 59 142 0 60 144 0 60 145 0 61 147 0 62 148 0 62 150 0 63 152 0 64 153 0 64 155 0 65 157 0 66 159 0 67 160 0 67 162 0 68 164 0 69 166 0 69 167 0 70 169 0 71 171 0 72 173 0 72 174 0 73 176 0 74 178 0 74 179 0 75 181 0 76 182 0 76 184 0 77 185 0 77 187 0 78 188 0 78 189 0 79 190 0 79 191 0 80 192 0 80 193 0 80 194 0 81 194 0 81 195 0 81 195 0 81 196 0 81 196 
0 46 112 0 47 113 0 47 114 0 48 115 0 48 116 0 49 118 0 49 119 0 50 120 0 50 121 0 51 122 0 51 123 0 52 125 0 52 126 0 53 127 0 53 128 0 54 130 0 54 131 0 55 133 0 56 134 0 56 135 0 57 137 0 57 138 0 58 140 0 59 141 0 59 143 0 60 144 0 61 146 0 61 148 0 62 149 0 63 151 0 63 152 0 64 154 0 65 156 0 65 157 0 66 159 0 67 161 0 67 163 0 68 164 0 69 166 0 70 168 0 70 169 0 71 171 0 72 173 0 72 174 0 73 176 0 74 177 0 74 179 0 75 180 0 75 182 0 76 183 0 77 184 0 77 186 0 78 187 0 78 188 0 78 189 0 79 190 0 79 191 0 79 191 0 80 192 0 80 193 0 80 193 0 80 193 0 80 193 
0 46 112 0 47 113 0 47 114 0 48 115 0 48 116 0 49 117 0 49 118 0 49 119 0 50 121 0 50 122 0 51 123 0 51 124 0 52 125 0 52 127 0 53 128 0 54 129 0 54 131 0 55 132 0 55 133 0 56 135 0 56 136 0 57 138 0 58 139 0 58 140 0 59 142 0 59 143 0 60 145 0 61 147 0 61 148 0 62 150 0 63 151 0 63 153 0 64 155 0 65 156 0 65 158 0 66 160 0 67 161 0 68 163 0 68 164 0 69 166 0 70 168 0 70 169 0 71 171 0 72 172 0 72 174 0 73 176 0 73 177 0 74 178 0 75 180 0 75 181 0 76 182 0 76 184 0 77 185 0 77 186 0 77 187 0 78 188 0 78 188 0 78 189 0 79 190 0 79 190 0 79 191 0 79 191 0 79 191 
0 46 112 0 47 113 0 47 114 0 47 115 0 48 116 0 48 117 0 49 118 0 49 119 0 50 120 0 50 121 0 51 122 0 51 124 0 52 125 0 52 126 0 53 127 0 53 129 0 54 130 0 54 131 0 55 133 0 56 134 0 56 135 0 57 137 0 57 138 0 58 140 0 58 141 0 59 143 0 60 144 0 60 146 0 61 147 0 62 149 0 62 150 0 63 152 0 64 153 0 64 155 0 65 157 0 66 158 0 66 160 0 67 161 0 68 163 0 68 165 0 69 166 0 70 168 0 70 169 0 71 171 0 71 172 0 72 174 0 73 175 0 73 176 0 74 178 0 74 179 0 75 180 0 75 181 0 76 182 0 76 183 0 77 184 0 77 185 0 77 186 0 77 187 0 78 187 0 78 188 0 78 188 0 78 188 0 78 188 
0 46 111 0 46 112 0 47 113 0 47 114 0 48 115 0 48 116 0 49 117 0 49 118 0 50 120 0 50 121 0 50 122 0 51 123 0 51 124 0 52 125 0 52 127 0 53 128 0 54 129 0 54 131 0 55 132 0 55 133 0 56 135 0 56 136 0 57 137 0 58 139 0 58 140 0 59 142 0 59 143 0 60 145 0 61 146 0 61 148 0 62 149 0 62 151 0 63 152 0 64 154 0 64 155 0 65 157 0 66 158 0 66 160 0 67 161 0 68 163 0 68 165 0 69 166 0 70 168 0 70 169 0 71 170 0 71 172 0 72 173 0 72 174 0 73 176 0 73 177 0 74 178 0 74 179 0 75 180 0 75 181 0 76 182 0 76 183 0 76 184 0 76 184 0 77 185 0 77 185 0 77 186 0 77 186 0 77 186 
0 46 111 0 46 112 0 47 113 0 47 114 0 48 115 0 48 116 0 48 117 0 49 118 0 49 119 0 50 120 0 50 121 0 51 122 0 51 124 0 52 125 0 52 126 0 53 127 0 53 129 0 54 130 0 54 131 0 55 132 0 55 134 0 56 135 0 57 136 0 57 138 0 58 139 0 58 141 0 59 142 0 60 144 0 60 145 0 61 146 0 61 148 0 62 149 0 63 151 0 63 152 0 64 154 0 64 155 0 65 157 0 66 158 0 66 160 0 67 161 0 68 163 0 68 164 0 69 166 0 69 167 0 70 169 0 71 170 0 71 171 0 72 172 0 72 174 0 73 175 0 73 176 0 73 177 0 74 178 0 74 179 0 75 180 0 75 181 0 75 181 0 75 182 0 76 182 0 76 183 0 76 183 0 76 183 0 76 184 
0 46 110 0 46 111 0 47 112 0 47 113 0 47 114 0 48 115 0 48 116 0 49 117 0 49 119 0 50 120 0 50 121 0 50 122 0 51 123 0 51 124 0 52 125 0 52 127 0 53 128 0 53 129 0 54 130 0 55 132 0 55 133 0 56 134 0 56 136 0 57 137 0 57 138 0 58 140 0 58 141 0 59 143 0 60 144 0 60 145 0 61 147 0 61 148 0 62 150 0 63 151 0 63 153 0 64 154 0 65 156 0 65 157 0 66 158 0 66 160 0 67 161 0 67 163 0 68 164 0 69 165 0 69 167 0 70 168 0 70 169 0 71 171 0 71 172 0 72 173 0 72 174 0 73 175 0 73 176 0 73 177 0 74 178 0 74 178 0 74 179 0 74 179 0 75 180 0 75 180 0 75 181 0 75 181 0 75 181 
0 46 110 0 46 111 0 46 112 0 47 113 0 47 114 0 48 115 0 48 116 0 48 117 0 49 118 0 49 119 0 50 120 0 50 121 0 51 122 0 51 124 0 52 125 0 52 126 0 53 127 0 53 128 0 54 130 0 54 131 0 55 132 0 55 133 0 56 135 0 56 136 0 57 137 0 58 139 0 58 140 0 59 141 0 59 143 0 60 144 0 60 146 0 61 147 0 62 148 0 62 150 0 63 151 0 63 153 0 64 154 0 65 156 0 65 157 0 66 158 0 66 160 0 67 161 0 67 162 0 68 164 0 68 165 0 69 166 0 69 167 0 70 169 0 70 170 0 71 171 0 71 172 0 72 173 0 72 174 0 72 174 0 73 175 0 73 176 0 73 177 0 74 177 0 74 178 0 74 178 0 74 178 0 74 179 0 74 179 
0 45 110 0 46 111 0 46 111 0 47 112 0 47 113 0 47 114 0 48 115 0 48 116 0 49 117 0 49 119 0 50 120 0 50 121 0 50 122 0 51 123 0 51 124 0 52 125 0 52 126 0 53 128 0 53 129 0 54 130 0 54 131 0 55 133 0 55 134 0 56 135 0 57 136 0 57 138 0 58 139 0 58 140 0 59 142 0 59 143 0 60 144 0 60 146 0 61 147 0 62 149 0 62 150 0 63 151 0 63 153 0 64 154 0 64 155 0 65 157 0 66 158 0 66 159 0 67 161 0 67 162 0 68 163 0 68 164 0 69 165 0 69 167 0 70 168 0 70 169 0 70 170 0 71 171 0 71 171 0 71 172 0 72 173 0 72 174 0 72 174 0 73 175 0 73 175 0 73 176 0 73 176 0 73 176 0 73 176 
0 45 109 0 46 110 0 46 111 0 46 112 0 47 113 0 47 114 0 48 115 0 48 116 0 48 117 0 49 118 0 49 119 0 50 120 0 50 121 0 51 122 0 51 123 0 52 125 0 52 126 0 53 127 0 53 128 0 54 129 0 54 130 0 55 132 0 55 133 0 56 134 0 56 135 0 57 137 0 57 138 0 58 139 0 58 141 0 59 142 0 59 143 0 60 145 0 61 146 0 61 147 0 62 149 0 62 150 0 63 151 0 63 153 0 64 154 0 64 155 0 65 156 0 65 158 0 66 159 0 66 160 0 67 161 0 67 162 0 68 164 0 68 165 0 69 166 0 69 167 0 70 168 0 70 168 0 70 169 0 71 170 0 71 171 0 71 171 0 71 172 0 72 172 0 72 173 0 72 173 0 72 174 0 72 174 0 72 174 
0 45 109 0 45 110 0 46 111 0 46 111 0 47 112 0 47 113 0 47 114 0 48 115 0 48 116 0 49 117 0 49 118 0 49 119 0 50 121 0 50 122 0 51 123 0 51 124 0 52 125 0 52 126 0 53 127 0 53 128 0 54 130 0 54 131 0 55 132 0 55 133 0 56 135 0 56 136 0 57 137 0 57 138 0 58 140 0 58 141 0 59 142 0 59 143 0 60 145 0 61 146 0 61 147 0 62 149 0 62 150 0 63 151 0 63 152 0 64 154 0 64 155 0 65 156 0 65 157 0 66 158 0 66 159 0 67 161 0 67 162 0 67 163 0 68 164 0 68 165 0 69 166 0 69 166 0 69 167 0 70 168 0 70 169 0 70 169 0 70 170 0 71 170 0 71 171 0 71 171 0 71 171 0 71 171 0 71 172 
