P3
# mcg@leim@isel 2014/2015
50 50
255
76 0 0 76 0 0 76 0 0 76 0 0 76 0 0 76 0 0 76 0 0 76 0 0 76 0 0 76 0 0 76 0 0 76 0 0 76 0 0 76 0 0 76 0 0 76 0 0 76 0 0 76 0 0 76 0 0 76 0 0 76 0 0 76 0 0 76 0 0 76 0 0 76 0 0 76 0 0 76 0 0 76 0 0 76 0 0 76 0 0 76 0 0 76 0 0 76 0 0 76 0 0 76 0 0 76 0 0 76 0 0 76 0 0 76 0 0 76 0 0 76 0 0 76 0 0 76 0 0 76 0 0 76 0 0 76 0 0 76 0 0 76 0 0 76 0 0 76 0 0 
76 0 0 76 0 0 76 0 0 76 0 0 76 0 0 76 0 0 76 0 0 76 0 0 76 0 0 76 0 0 76 0 0 76 0 0 76 0 0 76 0 0 76 0 0 76 0 0 76 0 0 76 0 0 76 0 0 76 0 0 76 0 0 76 0 0 76 0 0 76 0 0 76 0 0 76 0 0 76 0 0 76 0 0 76 0 0 76 0 0 76 0 0 76 0 0 76 0 0 76 0 0 76 0 0 76 0 0 76 0 0 76 0 0 76 0 0 76 0 0 76 0 0 76 0 0 76 0 0 76 0 0 76 0 0 76 0 0 76 0 0 76 0 0 76 0 0 76 0 0 
76 0 0 76 0 0 76 0 0 76 0 0 76 0 0 76 0 0 76 0 0 76 0 0 76 0 0 76 0 0 76 0 0 76 0 0 76 0 0 76 0 0 76 0 0 76 0 0 76 0 0 76 0 0 76 0 0 76 0 0 76 0 0 76 0 0 76 0 0 76 0 0 76 0 0 76 0 0 76 0 0 76 0 0 76 0 0 76 0 0 76 0 0 76 0 0 76 0 0 76 0 0 76 0 0 76 0 0 76 0 0 76 0 0 76 0 0 76 0 0 76 0 0 76 0 0 76 0 0 76 0 0 76 0 0 76 0 0 76 0 0 76 0 0 76 0 0 76 0 0 
76 0 0 76 0 0 76 0 0 76 0 0 76 0 0 76 0 0 76 0 0 76 0 0 76 0 0 76 0 0 76 0 0 76 0 0 76 0 0 76 0 0 76 0 0 76 0 0 76 0 0 76 0 0 76 0 0 76 0 0 76 0 0 76 0 0 76 0 0 76 0 0 76 0 0 76 0 0 76 0 0 76 0 0 76 0 0 76 0 0 76 0 0 76 0 0 76 0 0 76 0 0 76 0 0 76 0 0 76 0 0 76 0 0 76 0 0 76 0 0 76 0 0 76 0 0 76 0 0 76 0 0 76 0 0 76 0 0 76 0 0 76 0 0 76 0 0 76 0 0 
76 0 0 76 0 0 76 0 0 76 0 0 76 0 0 76 0 0 76 0 0 76 0 0 76 0 0 76 0 0 76 0 0 76 0 0 76 0 0 76 0 0 76 0 0 76 0 0 76 0 0 76 0 0 76 0 0 76 0 0 76 0 0 76 0 0 76 0 0 76 0 0 76 0 0 76 0 0 76 0 0 76 0 0 76 0 0 76 0 0 76 0 0 76 0 0 76 0 0 76 0 0 76 0 0 76 0 0 76 0 0 76 0 0 76 0 0 76 0 0 76 0 0 76 0 0 76 0 0 76 0 0 76 0 0 76 0 0 76 0 0 76 0 0 76 0 0 76 0 0 
76 0 0 76 0 0 76 0 0 76 0 0 76 0 0 76 0 0 76 0 0 76 0 0 76 0 0 76 0 0 76 0 0 76 0 0 76 0 0 76 0 0 76 0 0 76 0 0 76 0 0 76 0 0 76 0 0 76 0 0 76 0 0 76 0 0 76 0 0 76 0 0 76 0 0 76 0 0 76 0 0 76 0 0 76 0 0 76 0 0 76 0 0 76 0 0 76 0 0 76 0 0 76 0 0 76 0 0 76 0 0 76 0 0 76 0 0 76 0 0 76 0 0 76 0 0 76 0 0 76 0 0 76 0 0 76 0 0 76 0 0 76 0 0 76 0 0 76 0 0 
76 0 0 76 0 0 76 0 0 76 0 0 76 0 0 76 0 0 76 0 0 76 0 0 76 0 0 76 0 0 76 0 0 76 0 0 76 0 0 76 0 0 76 0 0 76 0 0 76 0 0 76 0 0 76 0 0 76 0 0 76 0 0 76 0 0 76 0 0 76 0 0 76 0 0 76 0 0 76 0 0 76 0 0 76 0 0 76 0 0 76 0 0 76 0 0 76 0 0 76 0 0 76 0 0 76 0 0 76 0 0 76 0 0 76 0 0 76 0 0 76 0 0 76 0 0 76 0 0 76 0 0 76 0 0 76 0 0 76 0 0 76 0 0 76 0 0 76 0 0 
76 0 0 76 0 0 76 0 0 76 0 0 76 0 0 76 0 0 76 0 0 76 0 0 76 0 0 76 0 0 76 0 0 76 0 0 76 0 0 76 0 0 76 0 0 76 0 0 76 0 0 76 0 0 76 0 0 76 0 0 76 0 0 76 0 0 76 0 0 76 0 0 76 0 0 76 0 0 76 0 0 76 0 0 76 0 0 76 0 0 76 0 0 76 0 0 76 0 0 76 0 0 76 0 0 76 0 0 76 0 0 76 0 0 76 0 0 76 0 0 76 0 0 76 0 0 76 0 0 76 0 0 76 0 0 76 0 0 76 0 0 76 0 0 76 0 0 76 0 0 
76 0 0 76 0 0 76 0 0 76 0 0 76 0 0 76 0 0 76 0 0 76 0 0 76 0 0 76 0 0 76 0 0 76 0 0 76 0 0 76 0 0 76 0 0 76 0 0 76 0 0 76 0 0 76 0 0 76 0 0 76 0 0 76 0 0 76 0 0 76 0 0 76 0 0 76 0 0 76 0 0 76 0 0 76 0 0 76 0 0 76 0 0 76 0 0 76 0 0 76 0 0 76 0 0 76 0 0 76 0 0 76 0 0 76 0 0 76 0 0 76 0 0 76 0 0 76 0 0 76 0 0 76 0 0 76 0 0 76 0 0 76 0 0 76 0 0 76 0 0 
76 0 0 76 0 0 76 0 0 76 0 0 76 0 0 76 0 0 76 0 0 76 0 0 76 0 0 76 0 0 76 0 0 76 0 0 76 0 0 76 0 0 76 0 0 76 0 0 76 0 0 76 0 0 76 0 0 76 0 0 76 0 0 76 0 0 76 0 0 76 0 0 76 0 0 76 0 0 76 0 0 76 0 0 76 0 0 76 0 0 76 0 0 76 0 0 76 0 0 76 0 0 76 0 0 76 0 0 76 0 0 76 0 0 76 0 0 76 0 0 76 0 0 76 0 0 76 0 0 76 0 0 76 0 0 76 0 0 76 0 0 76 0 0 76 0 0 76 0 0 
76 0 0 76 0 0 76 0 0 76 0 0 76 0 0 76 0 0 76 0 0 76 0 0 76 0 0 76 0 0 76 0 0 76 0 0 76 0 0 76 0 0 76 0 0 76 0 0 76 0 0 76 0 0 76 0 0 76 0 0 76 0 0 76 0 0 76 0 0 76 0 0 76 0 0 76 0 0 76 0 0 76 0 0 76 0 0 76 0 0 76 0 0 76 0 0 76 0 0 76 0 0 76 0 0 76 0 0 76 0 0 76 0 0 76 0 0 76 0 0 76 0 0 76 0 0 76 0 0 76 0 0 76 0 0 76 0 0 76 0 0 76 0 0 76 0 0 76 0 0 
76 0 0 76 0 0 76 0 0 76 0 0 76 0 0 76 0 0 76 0 0 76 0 0 76 0 0 76 0 0 76 0 0 76 0 0 76 0 0 76 0 0 76 0 0 76 0 0 76 0 0 76 0 0 76 0 0 76 0 0 76 0 0 76 0 0 76 0 0 76 0 0 76 0 0 76 0 0 76 0 0 76 0 0 76 0 0 76 0 0 76 0 0 76 0 0 76 0 0 76 0 0 76 0 0 76 0 0 76 0 0 76 0 0 76 0 0 76 0 0 76 0 0 76 0 0 76 0 0 76 0 0 76 0 0 76 0 0 76 0 0 76 0 0 76 0 0 76 0 0 
76 0 0 76 0 0 76 0 0 76 0 0 76 0 0 76 0 0 76 0 0 76 0 0 76 0 0 76 0 0 76 0 0 76 0 0 76 0 0 76 0 0 76 0 0 76 0 0 76 0 0 76 0 0 76 0 0 76 0 0 76 0 0 76 0 0 76 0 0 76 0 0 76 0 0 76 0 0 76 0 0 76 0 0 76 0 0 76 0 0 76 0 0 76 0 0 76 0 0 76 0 0 76 0 0 76 0 0 76 0 0 76 0 0 76 0 0 76 0 0 76 0 0 76 0 0 76 0 0 76 0 0 76 0 0 76 0 0 76 0 0 76 0 0 76 0 0 76 0 0 
76 0 0 76 0 0 76 0 0 76 0 0 76 0 0 76 0 0 76 0 0 76 0 0 76 0 0 76 0 0 76 0 0 76 0 0 76 0 0 76 0 0 76 0 0 76 0 0 76 0 0 76 0 0 76 0 0 76 0 0 76 0 0 76 0 0 76 0 0 76 0 0 76 0 0 76 0 0 76 0 0 76 0 0 76 0 0 76 0 0 76 0 0 76 0 0 76 0 0 76 0 0 76 0 0 76 0 0 76 0 0 76 0 0 76 0 0 76 0 0 76 0 0 76 0 0 76 0 0 76 0 0 76 0 0 76 0 0 76 0 0 76 0 0 76 0 0 76 0 0 
76 0 0 76 0 0 76 0 0 76 0 0 76 0 0 76 0 0 76 0 0 76 0 0 76 0 0 76 0 0 76 0 0 76 0 0 76 0 0 76 0 0 76 0 0 76 0 0 76 0 0 76 0 0 76 0 0 76 0 0 76 0 0 76 0 0 76 0 0 76 0 0 76 0 0 76 0 0 76 0 0 76 0 0 76 0 0 76 0 0 76 0 0 76 0 0 76 0 0 76 0 0 76 0 0 76 0 0 76 0 0 76 0 0 76 0 0 76 0 0 76 0 0 76 0 0 76 0 0 76 0 0 76 0 0 76 0 0 76 0 0 76 0 0 76 0 0 76 0 0 
76 0 0 76 0 0 76 0 0 76 0 0 76 0 0 76 0 0 76 0 0 76 0 0 76 0 0 76 0 0 76 0 0 76 0 0 76 0 0 76 0 0 76 0 0 76 0 0 76 0 0 76 0 0 76 0 0 76 0 0 76 0 0 76 0 0 76 0 0 76 0 0 76 0 0 76 0 0 76 0 0 76 0 0 76 0 0 76 0 0 76 0 0 76 0 0 76 0 0 76 0 0 76 0 0 76 0 0 76 0 0 76 0 0 76 0 0 76 0 0 76 0 0 76 0 0 76 0 0 76 0 0 76 0 0 76 0 0 76 0 0 76 0 0 76 0 0 76 0 0 
76 0 0 76 0 0 76 0 0 76 0 0 76 0 0 76 0 0 76 0 0 76 0 0 76 0 0 76 0 0 76 0 0 76 0 0 76 0 0 76 0 0 76 0 0 76 0 0 76 0 0 76 0 0 76 0 0 76 0 0 76 0 0 76 0 0 76 0 0 76 0 0 76 0 0 76 0 0 76 0 0 76 0 0 76 0 0 76 0 0 76 0 0 76 0 0 76 0 0 76 0 0 76 0 0 76 0 0 76 0 0 76 0 0 76 0 0 76 0 0 76 0 0 76 0 0 76 0 0 76 0 0 76 0 0 76 0 0 76 0 0 76 0 0 76 0 0 76 0 0 
76 0 0 76 0 0 76 0 0 76 0 0 76 0 0 76 0 0 76 0 0 76 0 0 76 0 0 76 0 0 76 0 0 76 0 0 76 0 0 76 0 0 76 0 0 76 0 0 76 0 0 76 0 0 76 0 0 76 0 0 76 0 0 76 0 0 76 0 0 76 0 0 76 0 0 76 0 0 76 0 0 76 0 0 76 0 0 76 0 0 76 0 0 76 0 0 76 0 0 76 0 0 76 0 0 76 0 0 76 0 0 76 0 0 76 0 0 76 0 0 76 0 0 76 0 0 76 0 0 76 0 0 76 0 0 76 0 0 76 0 0 76 0 0 76 0 0 76 0 0 
76 0 0 76 0 0 76 0 0 76 0 0 76 0 0 76 0 0 76 0 0 76 0 0 76 0 0 76 0 0 76 0 0 76 0 0 76 0 0 76 0 0 76 0 0 76 0 0 76 0 0 76 0 0 76 0 0 76 0 0 76 0 0 76 0 0 76 0 0 76 0 0 76 0 0 76 0 0 76 0 0 76 0 0 76 0 0 76 0 0 76 0 0 76 0 0 76 0 0 76 0 0 76 0 0 76 0 0 76 0 0 76 0 0 76 0 0 76 0 0 76 0 0 76 0 0 76 0 0 76 0 0 76 0 0 76 0 0 76 0 0 76 0 0 76 0 0 76 0 0 
76 0 0 76 0 0 76 0 0 76 0 0 76 0 0 76 0 0 76 0 0 76 0 0 76 0 0 76 0 0 76 0 0 76 0 0 76 0 0 76 0 0 76 0 0 76 0 0 76 0 0 76 0 0 76 0 0 76 0 0 76 0 0 76 0 0 76 0 0 76 0 0 76 0 0 76 0 0 76 0 0 76 0 0 76 0 0 76 0 0 76 0 0 76 0 0 76 0 0 76 0 0 76 0 0 76 0 0 76 0 0 76 0 0 76 0 0 76 0 0 76 0 0 76 0 0 76 0 0 76 0 0 76 0 0 76 0 0 76 0 0 76 0 0 76 0 0 76 0 0 
76 0 0 76 0 0 76 0 0 76 0 0 76 0 0 76 0 0 76 0 0 76 0 0 76 0 0 76 0 0 76 0 0 76 0 0 76 0 0 76 0 0 76 0 0 76 0 0 76 0 0 76 0 0 76 0 0 76 0 0 76 0 0 76 0 0 76 0 0 76 0 0 76 0 0 76 0 0 76 0 0 76 0 0 76 0 0 76 0 0 76 0 0 76 0 0 76 0 0 76 0 0 76 0 0 76 0 0 76 0 0 76 0 0 76 0 0 76 0 0 76 0 0 76 0 0 76 0 0 76 0 0 76 0 0 76 0 0 76 0 0 76 0 0 76 0 0 76 0 0 
76 0 0 76 0 0 76 0 0 76 0 0 76 0 0 76 0 0 76 0 0 76 0 0 76 0 0 76 0 0 76 0 0 76 0 0 76 0 0 76 0 0 76 0 0 76 0 0 76 0 0 76 0 0 76 0 0 76 0 0 76 0 0 76 0 0 76 0 0 76 0 0 76 0 0 76 0 0 76 0 0 76 0 0 76 0 0 76 0 0 76 0 0 76 0 0 76 0 0 76 0 0 76 0 0 76 0 0 76 0 0 76 0 0 76 0 0 76 0 0 76 0 0 76 0 0 76 0 0 76 0 0 76 0 0 76 0 0 76 0 0 76 0 0 76 0 0 76 0 0 
76 0 0 76 0 0 76 0 0 76 0 0 76 0 0 76 0 0 76 0 0 76 0 0 76 0 0 76 0 0 76 0 0 76 0 0 76 0 0 76 0 0 76 0 0 76 0 0 76 0 0 76 0 0 76 0 0 76 0 0 76 0 0 76 0 0 76 0 0 76 0 0 76 0 0 76 0 0 76 0 0 76 0 0 76 0 0 76 0 0 76 0 0 76 0 0 76 0 0 76 0 0 76 0 0 76 0 0 76 0 0 76 0 0 76 0 0 76 0 0 76 0 0 76 0 0 76 0 0 76 0 0 76 0 0 76 0 0 76 0 0 76 0 0 76 0 0 76 0 0 
76 0 0 76 0 0 76 0 0 76 0 0 76 0 0 76 0 0 76 0 0 76 0 0 76 0 0 76 0 0 76 0 0 76 0 0 76 0 0 76 0 0 76 0 0 76 0 0 76 0 0 76 0 0 76 0 0 76 0 0 76 0 0 76 0 0 76 0 0 76 0 0 76 0 0 76 0 0 76 0 0 76 0 0 76 0 0 76 0 0 76 0 0 76 0 0 76 0 0 76 0 0 76 0 0 76 0 0 76 0 0 76 0 0 76 0 0 76 0 0 76 0 0 76 0 0 76 0 0 76 0 0 76 0 0 76 0 0 76 0 0 76 0 0 76 0 0 76 0 0 
76 0 0 76 0 0 76 0 0 76 0 0 76 0 0 76 0 0 76 0 0 76 0 0 76 0 0 76 0 0 76 0 0 76 0 0 76 0 0 76 0 0 76 0 0 76 0 0 76 0 0 76 0 0 76 0 0 76 0 0 76 0 0 76 0 0 76 0 0 76 0 0 76 0 0 76 0 0 76 0 0 76 0 0 76 0 0 76 0 0 76 0 0 76 0 0 76 0 0 76 0 0 76 0 0 76 0 0 76 0 0 76 0 0 76 0 0 76 0 0 76 0 0 76 0 0 76 0 0 76 0 0 76 0 0 76 0 0 76 0 0 76 0 0 76 0 0 76 0 0 
76 0 0 76 0 0 76 0 0 76 0 0 76 0 0 76 0 0 76 0 0 0 0 203 0 0 203 0 0 204 0 0 206 0 0 214 0 0 231 0 0 255 0 0 255 0 0 255 0 0 255 0 0 255 0 0 233 0 0 213 0 0 202 0 0 197 0 0 195 0 0 194 0 0 193 76 0 0 76 0 0 76 0 0 76 0 0 76 0 0 76 0 0 76 0 0 76 0 0 76 0 0 76 0 0 76 0 0 76 0 0 76 0 0 76 0 0 76 0 0 76 0 0 76 0 0 76 0 0 76 0 0 76 0 0 76 0 0 76 0 0 76 0 0 76 0 0 76 0 0 
76 0 0 76 0 0 76 0 0 76 0 0 76 0 0 76 0 0 76 0 0 76 0 0 0 0 203 0 0 204 0 0 206 0 0 211 0 0 224 0 0 244 0 0 255 0 0 255 0 0 255 0 0 248 0 0 225 0 0 209 0 0 201 0 0 197 0 0 195 0 0 194 0 0 193 76 0 0 76 0 0 76 0 0 76 0 0 76 0 0 76 0 0 76 0 0 76 0 0 76 0 0 76 0 0 76 0 0 76 0 0 76 0 0 76 0 0 76 0 0 76 0 0 76 0 0 76 0 0 76 0 0 76 0 0 76 0 0 76 0 0 76 0 0 76 0 0 76 0 0 
76 0 0 76 0 0 76 0 0 76 0 0 76 0 0 76 0 0 76 0 0 76 0 0 76 0 0 0 0 203 0 0 204 0 0 207 0 0 215 0 0 226 0 0 239 0 0 244 0 0 240 0 0 227 0 0 214 0 0 204 0 0 199 0 0 196 0 0 195 0 0 194 0 0 193 76 0 0 76 0 0 76 0 0 76 0 0 76 0 0 76 0 0 76 0 0 76 0 0 76 0 0 76 0 0 76 0 0 76 0 0 76 0 0 76 0 0 76 0 0 76 0 0 76 0 0 76 0 0 76 0 0 76 0 0 76 0 0 76 0 0 76 0 0 76 0 0 76 0 0 
76 0 0 76 0 0 76 0 0 76 0 0 76 0 0 76 0 0 76 0 0 76 0 0 76 0 0 76 0 0 0 0 203 0 0 204 0 0 207 0 0 212 0 0 218 0 0 220 0 0 217 0 0 212 0 0 205 0 0 200 0 0 197 0 0 196 0 0 195 0 0 194 0 0 193 76 0 0 76 0 0 76 0 0 76 0 0 76 0 0 76 0 0 76 0 0 76 0 0 76 0 0 76 0 0 76 0 0 76 0 0 76 0 0 76 0 0 76 0 0 76 0 0 76 0 0 76 0 0 76 0 0 76 0 0 76 0 0 76 0 0 76 0 0 76 0 0 76 0 0 
76 0 0 76 0 0 76 0 0 76 0 0 76 0 0 76 0 0 76 0 0 76 0 0 76 0 0 76 0 0 76 0 0 0 0 203 0 0 203 0 0 205 0 0 206 0 0 207 0 0 205 0 0 203 0 0 200 0 0 198 0 0 197 0 0 195 0 0 195 0 0 194 0 0 193 76 0 0 76 0 0 76 0 0 76 0 0 76 0 0 76 0 0 76 0 0 76 0 0 76 0 0 76 0 0 76 0 0 76 0 0 76 0 0 76 0 0 76 0 0 76 0 0 76 0 0 76 0 0 76 0 0 76 0 0 76 0 0 76 0 0 76 0 0 76 0 0 76 0 0 
76 0 0 76 0 0 76 0 0 76 0 0 76 0 0 76 0 0 76 0 0 76 0 0 76 0 0 76 0 0 76 0 0 76 0 0 0 0 202 0 0 202 0 0 202 0 0 201 0 0 201 0 0 199 0 0 198 0 0 197 0 0 196 0 0 195 0 0 194 0 0 193 0 0 192 76 0 0 76 0 0 76 0 0 76 0 0 76 0 0 76 0 0 76 0 0 76 0 0 76 0 0 76 0 0 76 0 0 76 0 0 76 0 0 76 0 0 76 0 0 76 0 0 76 0 0 76 0 0 76 0 0 76 0 0 76 0 0 76 0 0 76 0 0 76 0 0 76 0 0 
76 0 0 76 0 0 76 0 0 76 0 0 76 0 0 76 0 0 76 0 0 76 0 0 76 0 0 76 0 0 76 0 0 76 0 0 76 0 0 0 0 200 0 0 200 0 0 200 0 0 199 0 0 198 0 0 197 0 0 196 0 0 196 0 0 195 0 0 194 0 0 193 0 0 192 76 0 0 76 0 0 76 0 0 76 0 0 76 0 0 76 0 0 76 0 0 76 0 0 76 0 0 76 0 0 76 0 0 76 0 0 76 0 0 76 0 0 76 0 0 76 0 0 76 0 0 76 0 0 76 0 0 76 0 0 76 0 0 76 0 0 76 0 0 76 0 0 76 0 0 
76 0 0 76 0 0 76 0 0 76 0 0 76 0 0 76 0 0 76 0 0 76 0 0 76 0 0 76 0 0 76 0 0 76 0 0 76 0 0 76 0 0 0 0 199 0 0 199 0 0 198 0 0 197 0 0 197 0 0 196 0 0 195 0 0 194 0 0 194 0 0 193 0 0 192 76 0 0 76 0 0 76 0 0 76 0 0 76 0 0 76 0 0 76 0 0 76 0 0 76 0 0 76 0 0 76 0 0 76 0 0 76 0 0 76 0 0 76 0 0 76 0 0 76 0 0 76 0 0 76 0 0 76 0 0 76 0 0 76 0 0 76 0 0 76 0 0 76 0 0 
76 0 0 76 0 0 76 0 0 76 0 0 76 0 0 76 0 0 76 0 0 76 0 0 76 0 0 76 0 0 76 0 0 76 0 0 76 0 0 76 0 0 76 0 0 0 0 198 0 0 198 0 0 197 0 0 196 0 0 196 0 0 195 0 0 194 0 0 193 0 0 192 0 0 191 76 0 0 76 0 0 76 0 0 76 0 0 76 0 0 76 0 0 76 0 0 76 0 0 76 0 0 76 0 0 76 0 0 76 0 0 76 0 0 76 0 0 76 0 0 76 0 0 76 0 0 76 0 0 76 0 0 76 0 0 76 0 0 76 0 0 76 0 0 76 0 0 76 0 0 
76 0 0 76 0 0 76 0 0 76 0 0 76 0 0 76 0 0 76 0 0 76 0 0 76 0 0 76 0 0 76 0 0 76 0 0 76 0 0 76 0 0 76 0 0 76 0 0 0 0 197 0 0 196 0 0 196 0 0 195 0 0 194 0 0 193 0 0 193 0 0 192 0 0 191 76 0 0 76 0 0 76 0 0 76 0 0 76 0 0 76 0 0 76 0 0 76 0 0 76 0 0 76 0 0 76 0 0 76 0 0 76 0 0 76 0 0 76 0 0 76 0 0 76 0 0 76 0 0 76 0 0 76 0 0 76 0 0 76 0 0 76 0 0 76 0 0 76 0 0 
76 0 0 76 0 0 76 0 0 76 0 0 76 0 0 76 0 0 76 0 0 76 0 0 76 0 0 76 0 0 76 0 0 76 0 0 76 0 0 76 0 0 76 0 0 76 0 0 76 0 0 0 0 196 0 0 195 0 0 194 0 0 194 0 0 193 0 0 192 0 0 191 0 0 190 76 0 0 76 0 0 76 0 0 76 0 0 76 0 0 76 0 0 76 0 0 76 0 0 76 0 0 76 0 0 76 0 0 76 0 0 76 0 0 76 0 0 76 0 0 76 0 0 76 0 0 76 0 0 76 0 0 76 0 0 76 0 0 76 0 0 76 0 0 76 0 0 76 0 0 
76 0 0 76 0 0 76 0 0 76 0 0 76 0 0 76 0 0 76 0 0 76 0 0 76 0 0 76 0 0 76 0 0 76 0 0 76 0 0 76 0 0 76 0 0 76 0 0 76 0 0 76 0 0 0 0 195 0 0 194 0 0 193 0 0 192 0 0 192 0 0 191 0 0 190 76 0 0 76 0 0 76 0 0 76 0 0 76 0 0 76 0 0 76 0 0 76 0 0 76 0 0 76 0 0 76 0 0 76 0 0 76 0 0 76 0 0 76 0 0 76 0 0 76 0 0 76 0 0 76 0 0 76 0 0 76 0 0 76 0 0 76 0 0 76 0 0 76 0 0 
76 0 0 76 0 0 76 0 0 76 0 0 76 0 0 76 0 0 76 0 0 76 0 0 76 0 0 76 0 0 76 0 0 76 0 0 76 0 0 76 0 0 76 0 0 76 0 0 76 0 0 76 0 0 76 0 0 0 0 193 0 0 193 0 0 192 0 0 191 0 0 190 0 0 189 76 0 0 76 0 0 76 0 0 76 0 0 76 0 0 76 0 0 76 0 0 76 0 0 76 0 0 76 0 0 76 0 0 76 0 0 76 0 0 76 0 0 76 0 0 76 0 0 76 0 0 76 0 0 76 0 0 76 0 0 76 0 0 76 0 0 76 0 0 76 0 0 76 0 0 
76 0 0 76 0 0 76 0 0 76 0 0 76 0 0 76 0 0 76 0 0 76 0 0 76 0 0 76 0 0 76 0 0 76 0 0 76 0 0 76 0 0 76 0 0 76 0 0 76 0 0 76 0 0 76 0 0 76 0 0 0 0 192 0 0 191 0 0 190 0 0 190 0 0 189 76 0 0 76 0 0 76 0 0 76 0 0 76 0 0 76 0 0 76 0 0 76 0 0 76 0 0 76 0 0 76 0 0 76 0 0 76 0 0 76 0 0 76 0 0 76 0 0 76 0 0 76 0 0 76 0 0 76 0 0 76 0 0 76 0 0 76 0 0 76 0 0 76 0 0 
76 0 0 76 0 0 76 0 0 76 0 0 76 0 0 76 0 0 76 0 0 76 0 0 76 0 0 76 0 0 76 0 0 76 0 0 76 0 0 76 0 0 76 0 0 76 0 0 76 0 0 76 0 0 76 0 0 76 0 0 76 0 0 0 0 190 0 0 190 0 0 189 0 0 188 76 0 0 76 0 0 76 0 0 76 0 0 76 0 0 76 0 0 76 0 0 76 0 0 76 0 0 76 0 0 76 0 0 76 0 0 76 0 0 76 0 0 76 0 0 76 0 0 76 0 0 76 0 0 76 0 0 76 0 0 76 0 0 76 0 0 76 0 0 76 0 0 76 0 0 
76 0 0 76 0 0 76 0 0 76 0 0 76 0 0 76 0 0 76 0 0 76 0 0 76 0 0 76 0 0 76 0 0 76 0 0 76 0 0 76 0 0 76 0 0 76 0 0 76 0 0 76 0 0 76 0 0 76 0 0 76 0 0 76 0 0 0 0 189 0 0 188 0 0 187 76 0 0 76 0 0 76 0 0 76 0 0 76 0 0 76 0 0 76 0 0 76 0 0 76 0 0 76 0 0 76 0 0 76 0 0 76 0 0 76 0 0 76 0 0 76 0 0 76 0 0 76 0 0 76 0 0 76 0 0 76 0 0 76 0 0 76 0 0 76 0 0 76 0 0 
76 0 0 76 0 0 76 0 0 76 0 0 76 0 0 76 0 0 76 0 0 76 0 0 76 0 0 76 0 0 76 0 0 76 0 0 76 0 0 76 0 0 76 0 0 76 0 0 76 0 0 76 0 0 76 0 0 76 0 0 76 0 0 76 0 0 76 0 0 0 0 188 0 0 187 76 0 0 76 0 0 76 0 0 76 0 0 76 0 0 76 0 0 76 0 0 76 0 0 76 0 0 76 0 0 76 0 0 76 0 0 76 0 0 76 0 0 76 0 0 76 0 0 76 0 0 76 0 0 76 0 0 76 0 0 76 0 0 76 0 0 76 0 0 76 0 0 76 0 0 
76 0 0 76 0 0 76 0 0 76 0 0 76 0 0 76 0 0 76 0 0 76 0 0 76 0 0 76 0 0 76 0 0 76 0 0 76 0 0 76 0 0 76 0 0 76 0 0 76 0 0 76 0 0 76 0 0 76 0 0 76 0 0 76 0 0 76 0 0 76 0 0 0 0 186 76 0 0 76 0 0 76 0 0 76 0 0 76 0 0 76 0 0 76 0 0 76 0 0 76 0 0 76 0 0 76 0 0 76 0 0 76 0 0 76 0 0 76 0 0 76 0 0 76 0 0 76 0 0 76 0 0 76 0 0 76 0 0 76 0 0 76 0 0 76 0 0 76 0 0 
76 0 0 76 0 0 76 0 0 76 0 0 76 0 0 76 0 0 76 0 0 76 0 0 76 0 0 76 0 0 76 0 0 76 0 0 76 0 0 76 0 0 76 0 0 76 0 0 76 0 0 76 0 0 76 0 0 76 0 0 76 0 0 76 0 0 76 0 0 76 0 0 76 0 0 76 0 0 76 0 0 76 0 0 76 0 0 76 0 0 76 0 0 76 0 0 76 0 0 76 0 0 76 0 0 76 0 0 76 0 0 76 0 0 76 0 0 76 0 0 76 0 0 76 0 0 76 0 0 76 0 0 76 0 0 76 0 0 76 0 0 76 0 0 76 0 0 76 0 0 
76 0 0 76 0 0 76 0 0 76 0 0 76 0 0 76 0 0 76 0 0 76 0 0 76 0 0 76 0 0 76 0 0 76 0 0 76 0 0 76 0 0 76 0 0 76 0 0 76 0 0 76 0 0 76 0 0 76 0 0 76 0 0 76 0 0 76 0 0 76 0 0 76 0 0 76 0 0 76 0 0 76 0 0 76 0 0 76 0 0 76 0 0 76 0 0 76 0 0 76 0 0 76 0 0 76 0 0 76 0 0 76 0 0 76 0 0 76 0 0 76 0 0 76 0 0 76 0 0 76 0 0 76 0 0 76 0 0 76 0 0 76 0 0 76 0 0 76 0 0 
76 0 0 76 0 0 76 0 0 76 0 0 76 0 0 76 0 0 76 0 0 76 0 0 76 0 0 76 0 0 76 0 0 76 0 0 76 0 0 76 0 0 76 0 0 76 0 0 76 0 0 76 0 0 76 0 0 76 0 0 76 0 0 76 0 0 76 0 0 76 0 0 76 0 0 76 0 0 76 0 0 76 0 0 76 0 0 76 0 0 76 0 0 76 0 0 76 0 0 76 0 0 76 0 0 76 0 0 76 0 0 76 0 0 76 0 0 76 0 0 76 0 0 76 0 0 76 0 0 76 0 0 76 0 0 76 0 0 76 0 0 76 0 0 76 0 0 76 0 0 
76 0 0 76 0 0 76 0 0 76 0 0 76 0 0 76 0 0 76 0 0 76 0 0 76 0 0 76 0 0 76 0 0 76 0 0 76 0 0 76 0 0 76 0 0 76 0 0 76 0 0 76 0 0 76 0 0 76 0 0 76 0 0 76 0 0 76 0 0 76 0 0 76 0 0 76 0 0 76 0 0 76 0 0 76 0 0 76 0 0 76 0 0 76 0 0 76 0 0 76 0 0 76 0 0 76 0 0 76 0 0 76 0 0 76 0 0 76 0 0 76 0 0 76 0 0 76 0 0 76 0 0 76 0 0 76 0 0 76 0 0 76 0 0 76 0 0 76 0 0 
76 0 0 76 0 0 76 0 0 76 0 0 76 0 0 76 0 0 76 0 0 76 0 0 76 0 0 76 0 0 76 0 0 76 0 0 76 0 0 76 0 0 76 0 0 76 0 0 76 0 0 76 0 0 76 0 0 76 0 0 76 0 0 76 0 0 76 0 0 76 0 0 76 0 0 76 0 0 76 0 0 76 0 0 76 0 0 76 0 0 76 0 0 76 0 0 76 0 0 76 0 0 76 0 0 76 0 0 76 0 0 76 0 0 76 0 0 76 0 0 76 0 0 76 0 0 76 0 0 76 0 0 76 0 0 76 0 0 76 0 0 76 0 0 76 0 0 76 0 0 
76 0 0 76 0 0 76 0 0 76 0 0 76 0 0 76 0 0 76 0 0 76 0 0 76 0 0 76 0 0 76 0 0 76 0 0 76 0 0 76 0 0 76 0 0 76 0 0 76 0 0 76 0 0 76 0 0 76 0 0 76 0 0 76 0 0 76 0 0 76 0 0 76 0 0 76 0 0 76 0 0 76 0 0 76 0 0 76 0 0 76 0 0 76 0 0 76 0 0 76 0 0 76 0 0 76 0 0 76 0 0 76 0 0 76 0 0 76 0 0 76 0 0 76 0 0 76 0 0 76 0 0 76 0 0 76 0 0 76 0 0 76 0 0 76 0 0 76 0 0 
76 0 0 76 0 0 76 0 0 76 0 0 76 0 0 76 0 0 76 0 0 76 0 0 76 0 0 76 0 0 76 0 0 76 0 0 76 0 0 76 0 0 76 0 0 76 0 0 76 0 0 76 0 0 76 0 0 76 0 0 76 0 0 76 0 0 76 0 0 76 0 0 76 0 0 76 0 0 76 0 0 76 0 0 76 0 0 76 0 0 76 0 0 76 0 0 76 0 0 76 0 0 76 0 0 76 0 0 76 0 0 76 0 0 76 0 0 76 0 0 76 0 0 76 0 0 76 0 0 76 0 0 76 0 0 76 0 0 76 0 0 76 0 0 76 0 0 76 0 0 
